<svg width="65" height="64" viewBox="0 0 65 64" fill="none" xmlns="http://www.w3.org/2000/svg">
<rect x="0.5" width="64" height="64" rx="14" fill="url(#paint0_linear_1_91)"/>
<path d="M30.2667 21.756C30.8347 19.4147 34.1653 19.4147 34.7333 21.756C34.8186 22.1077 34.9856 22.4344 35.2209 22.7093C35.4563 22.9843 35.7532 23.1998 36.0875 23.3383C36.4219 23.4769 36.7842 23.5345 37.145 23.5065C37.5059 23.4785 37.855 23.3657 38.164 23.1773C40.2213 21.924 42.5773 24.2787 41.324 26.3373C41.1359 26.6462 41.0233 26.9951 40.9954 27.3557C40.9674 27.7163 41.025 28.0784 41.1634 28.4125C41.3017 28.7467 41.517 29.0434 41.7916 29.2787C42.0663 29.514 42.3926 29.6812 42.744 29.7667C45.0853 30.3347 45.0853 33.6653 42.744 34.2333C42.3923 34.3186 42.0656 34.4856 41.7907 34.7209C41.5157 34.9563 41.3002 35.2532 41.1617 35.5875C41.0232 35.9219 40.9655 36.2842 40.9935 36.645C41.0215 37.0059 41.1343 37.355 41.3227 37.664C42.576 39.7213 40.2213 42.0773 38.1627 40.824C37.8538 40.6359 37.5049 40.5233 37.1443 40.4954C36.7837 40.4674 36.4216 40.525 36.0875 40.6634C35.7533 40.8017 35.4566 41.017 35.2213 41.2916C34.986 41.5663 34.8188 41.8926 34.7333 42.244C34.1653 44.5853 30.8347 44.5853 30.2667 42.244C30.1814 41.8923 30.0144 41.5656 29.7791 41.2907C29.5437 41.0157 29.2468 40.8002 28.9125 40.6617C28.5781 40.5232 28.2158 40.4655 27.855 40.4935C27.4941 40.5215 27.145 40.6343 26.836 40.8227C24.7787 42.076 22.4227 39.7213 23.676 37.6627C23.8641 37.3538 23.9767 37.0049 24.0046 36.6443C24.0326 36.2837 23.975 35.9216 23.8366 35.5875C23.6983 35.2533 23.483 34.9566 23.2084 34.7213C22.9337 34.486 22.6074 34.3188 22.256 34.2333C19.9147 33.6653 19.9147 30.3347 22.256 29.7667C22.6077 29.6814 22.9344 29.5144 23.2093 29.2791C23.4843 29.0437 23.6998 28.7468 23.8383 28.4125C23.9769 28.0781 24.0345 27.7158 24.0065 27.355C23.9785 26.9941 23.8657 26.645 23.6773 26.336C22.424 24.2787 24.7787 21.9227 26.8373 23.176C28.1707 23.9867 29.8987 23.2693 30.2667 21.756Z" stroke="#1E2246" stroke-width="2" stroke-linecap="round" stroke-linejoin="round"/>
<path d="M32.5 36C34.7091 36 36.5 34.2091 36.5 32C36.5 29.7909 34.7091 28 32.5 28C30.2909 28 28.5 29.7909 28.5 32C28.5 34.2091 30.2909 36 32.5 36Z" stroke="#1E2246" stroke-width="2" stroke-linecap="round" stroke-linejoin="round"/>
<defs>
<linearGradient id="paint0_linear_1_91" x1="1" y1="6.5" x2="65" y2="64" gradientUnits="userSpaceOnUse">
<stop stop-color="#BBEBFB"/>
<stop offset="1" stop-color="#EFD5FF"/>
</linearGradient>
</defs>
</svg>
